<svg xmlns="http://www.w3.org/2000/svg" viewBox="0 0 128 128">
  <g transform="translate(4,-30)">
    <rect x="4" y="44" width="112" height="100" rx="32" fill="#2FB344"></rect>
    <circle cx="40.75" cy="77.25" r="9.25" fill="#ffffff"></circle>
    <circle cx="79.25" cy="77.25" r="9.25" fill="#ffffff"></circle>
    <g transform="translate(49.41,118.98)"><path d="M11.78 0.45L11.78 0.45Q9.63 0.45 8.48-0.29Q7.33-1.02 6.78-1.92L6.78-1.92L6.21-1.92L6.21 0L2.24 0L2.24-22.40L6.27-22.40L6.27-14.05L6.85-14.05Q7.20-14.62 7.79-15.14Q8.38-15.65 9.36-15.98Q10.34-16.32 11.78-16.32L11.78-16.32Q13.70-16.32 15.33-15.38Q16.96-14.43 17.95-12.61Q18.94-10.78 18.94-8.19L18.94-8.19L18.94-7.68Q18.94-5.09 17.95-3.26Q16.96-1.44 15.33-0.50Q13.70 0.45 11.78 0.45ZM10.56-3.07L10.56-3.07Q12.42-3.07 13.66-4.27Q14.91-5.47 14.91-7.78L14.91-7.78L14.91-8.10Q14.91-10.40 13.68-11.60Q12.45-12.80 10.56-12.80L10.56-12.80Q8.70-12.80 7.46-11.60Q6.21-10.40 6.21-8.10L6.21-8.10L6.21-7.78Q6.21-5.47 7.46-4.27Q8.70-3.07 10.56-3.07Z" fill="#ffffff"></path></g>
  </g>
</svg>