<svg xmlns="http://www.w3.org/2000/svg" viewBox="0 0 182 216">
  <g transform="translate(31,0)">
    <rect x="58" y="26" width="4" height="18" rx="2" fill="#2FB344"></rect>
    <circle cx="60" cy="18" r="7.5" fill="#2FB344"></circle>
    <rect x="4" y="44" width="112" height="100" rx="32" fill="#2FB344"></rect>
    <circle cx="40.75" cy="77.25" r="9.25" fill="#ffffff"></circle>
    <circle cx="79.25" cy="77.25" r="9.25" fill="#ffffff"></circle>
    <g transform="translate(49.41,118.98)"><path d="M11.78 0.45L11.78 0.45Q9.63 0.45 8.48-0.29Q7.33-1.02 6.78-1.92L6.78-1.92L6.21-1.92L6.21 0L2.24 0L2.24-22.40L6.27-22.40L6.27-14.05L6.85-14.05Q7.20-14.62 7.79-15.14Q8.38-15.65 9.36-15.98Q10.34-16.32 11.78-16.32L11.78-16.32Q13.70-16.32 15.33-15.38Q16.96-14.43 17.95-12.61Q18.94-10.78 18.94-8.19L18.94-8.19L18.94-7.68Q18.94-5.09 17.95-3.26Q16.96-1.44 15.33-0.50Q13.70 0.45 11.78 0.45ZM10.56-3.07L10.56-3.07Q12.42-3.07 13.66-4.27Q14.91-5.47 14.91-7.78L14.91-7.78L14.91-8.10Q14.91-10.40 13.68-11.60Q12.45-12.80 10.56-12.80L10.56-12.80Q8.70-12.80 7.46-11.60Q6.21-10.40 6.21-8.10L6.21-8.10L6.21-7.78Q6.21-5.47 7.46-4.27Q8.70-3.07 10.56-3.07Z" fill="#ffffff"></path></g>
  </g>
  <g transform="translate(2.17,206.84)">
    <path d="M22.08 0.84L22.08 0.84Q18.06 0.84 15.90-0.54Q13.74-1.92 12.72-3.60L12.72-3.60L11.64-3.60L11.64 0L4.20 0L4.20-42L11.76-42L11.76-26.34L12.84-26.34Q13.50-27.42 14.61-28.38Q15.72-29.34 17.55-29.97Q19.38-30.60 22.08-30.60L22.08-30.60Q25.68-30.60 28.74-28.83Q31.80-27.06 33.66-23.64Q35.52-20.22 35.52-15.36L35.52-15.36L35.52-14.40Q35.52-9.54 33.66-6.12Q31.80-2.70 28.74-0.93Q25.68 0.84 22.08 0.84ZM19.80-5.76L19.80-5.76Q23.28-5.76 25.62-8.01Q27.96-10.26 27.96-14.58L27.96-14.58L27.96-15.18Q27.96-19.50 25.65-21.75Q23.34-24 19.80-24L19.80-24Q16.32-24 13.98-21.75Q11.64-19.50 11.64-15.18L11.64-15.18L11.64-14.58Q11.64-10.26 13.98-8.01Q16.32-5.76 19.80-5.76ZM51.72 0.84L51.72 0.84Q48.54 0.84 46.02-0.27Q43.50-1.38 42.03-3.51Q40.56-5.64 40.56-8.70L40.56-8.70Q40.56-11.76 42.03-13.83Q43.50-15.90 46.11-16.95Q48.72-18 52.08-18L52.08-18L60.24-18L60.24-19.68Q60.24-21.78 58.92-23.13Q57.60-24.48 54.72-24.48L54.72-24.48Q51.90-24.48 50.52-23.19Q49.14-21.90 48.72-19.86L48.72-19.86L41.76-22.20Q42.48-24.48 44.07-26.37Q45.66-28.26 48.33-29.43Q51-30.60 54.84-30.60L54.84-30.60Q60.72-30.60 64.14-27.66Q67.56-24.72 67.56-19.14L67.56-19.14L67.56-8.04Q67.56-6.24 69.24-6.24L69.24-6.24L71.64-6.24L71.64 0L66.60 0Q64.38 0 62.94-1.08Q61.50-2.16 61.50-3.96L61.50-3.96L61.50-4.02L60.36-4.02Q60.12-3.30 59.28-2.13Q58.44-0.96 56.64-0.06Q54.84 0.84 51.72 0.84ZM53.04-5.28L53.04-5.28Q56.22-5.28 58.23-7.05Q60.24-8.82 60.24-11.76L60.24-11.76L60.24-12.36L52.62-12.36Q50.52-12.36 49.32-11.46Q48.12-10.56 48.12-8.94L48.12-8.94Q48.12-7.32 49.38-6.30Q50.64-5.28 53.04-5.28ZM84.72 0L77.16 0L77.16-42L84.72-42L84.72 0ZM106.68 0.84L106.68 0.84Q102.24 0.84 98.85-1.05Q95.46-2.94 93.57-6.39Q91.68-9.84 91.68-14.52L91.68-14.52L91.68-15.24Q91.68-19.92 93.54-23.37Q95.40-26.82 98.76-28.71Q102.12-30.60 106.56-30.60L106.56-30.60Q110.94-30.60 114.18-28.65Q117.42-26.70 119.22-23.25Q121.02-19.80 121.02-15.24L121.02-15.24L121.02-12.66L99.36-12.66Q99.48-9.60 101.64-7.68Q103.80-5.76 106.92-5.76L106.92-5.76Q110.10-5.76 111.60-7.14Q113.10-8.52 113.88-10.20L113.88-10.20L120.06-6.96Q119.22-5.40 117.63-3.57Q116.04-1.74 113.40-0.45Q110.76 0.84 106.68 0.84ZM99.42-18.30L99.42-18.30L113.34-18.30Q113.10-20.88 111.27-22.44Q109.44-24 106.50-24L106.50-24Q103.44-24 101.64-22.44Q99.84-20.88 99.42-18.30Z" fill="#12211A"></path>
    <path d="M135.30 0L127.74 0L127.74-29.76L135.30-29.76L135.30 0ZM131.52-33.24L131.52-33.24Q129.48-33.24 128.07-34.56Q126.66-35.88 126.66-38.04L126.66-38.04Q126.66-40.20 128.07-41.52Q129.48-42.84 131.52-42.84L131.52-42.84Q133.62-42.84 135-41.52Q136.38-40.20 136.38-38.04L136.38-38.04Q136.38-35.88 135-34.56Q133.62-33.24 131.52-33.24ZM157.86 0.84L157.86 0.84Q153.42 0.84 149.88-0.96Q146.34-2.76 144.30-6.18Q142.26-9.60 142.26-14.40L142.26-14.40L142.26-15.36Q142.26-20.16 144.30-23.58Q146.34-27 149.88-28.80Q153.42-30.60 157.86-30.60L157.86-30.60Q162.30-30.60 165.84-28.80Q169.38-27 171.42-23.58Q173.46-20.16 173.46-15.36L173.46-15.36L173.46-14.40Q173.46-9.60 171.42-6.18Q169.38-2.76 165.84-0.96Q162.30 0.84 157.86 0.84ZM157.86-5.88L157.86-5.88Q161.34-5.88 163.62-8.13Q165.90-10.38 165.90-14.58L165.90-14.58L165.90-15.18Q165.90-19.38 163.65-21.63Q161.40-23.88 157.86-23.88L157.86-23.88Q154.38-23.88 152.10-21.63Q149.82-19.38 149.82-15.18L149.82-15.18L149.82-14.58Q149.82-10.38 152.10-8.13Q154.38-5.88 157.86-5.88Z" fill="#2FB344"></path>
  </g>
</svg>