<svg xmlns="http://www.w3.org/2000/svg" viewBox="0 0 384 152">
  <g transform="translate(0,0)">
    <rect x="58" y="26" width="4" height="18" rx="2" fill="#2FB344"></rect>
    <circle cx="60" cy="18" r="7.5" fill="#2FB344"></circle>
    <rect x="4" y="44" width="112" height="100" rx="32" fill="#2FB344"></rect>
    <circle cx="40.75" cy="77.25" r="9.25" fill="#ffffff"></circle>
    <circle cx="79.25" cy="77.25" r="9.25" fill="#ffffff"></circle>
    <g transform="translate(49.41,118.98)"><path d="M11.78 0.45L11.78 0.45Q9.63 0.45 8.48-0.29Q7.33-1.02 6.78-1.92L6.78-1.92L6.21-1.92L6.21 0L2.24 0L2.24-22.40L6.27-22.40L6.27-14.05L6.85-14.05Q7.20-14.62 7.79-15.14Q8.38-15.65 9.36-15.98Q10.34-16.32 11.78-16.32L11.78-16.32Q13.70-16.32 15.33-15.38Q16.96-14.43 17.95-12.61Q18.94-10.78 18.94-8.19L18.94-8.19L18.94-7.68Q18.94-5.09 17.95-3.26Q16.96-1.44 15.33-0.50Q13.70 0.45 11.78 0.45ZM10.56-3.07L10.56-3.07Q12.42-3.07 13.66-4.27Q14.91-5.47 14.91-7.78L14.91-7.78L14.91-8.10Q14.91-10.40 13.68-11.60Q12.45-12.80 10.56-12.80L10.56-12.80Q8.70-12.80 7.46-11.60Q6.21-10.40 6.21-8.10L6.21-8.10L6.21-7.78Q6.21-5.47 7.46-4.27Q8.70-3.07 10.56-3.07Z" fill="#ffffff"></path></g>
  </g>
  <g transform="translate(138.26,122.7)">
    <path d="M30.18 1.15L30.18 1.15Q24.68 1.15 21.73-0.74Q18.78-2.62 17.38-4.92L17.38-4.92L15.91-4.92L15.91 0L5.74 0L5.74-57.40L16.07-57.40L16.07-36.00L17.55-36.00Q18.45-37.47 19.97-38.79Q21.48-40.10 23.98-40.96Q26.49-41.82 30.18-41.82L30.18-41.82Q35.10-41.82 39.28-39.40Q43.46-36.98 46.00-32.31Q48.54-27.63 48.54-20.99L48.54-20.99L48.54-19.68Q48.54-13.04 46.00-8.36Q43.46-3.69 39.28-1.27Q35.10 1.15 30.18 1.15ZM27.06-7.87L27.06-7.87Q31.82-7.87 35.01-10.95Q38.21-14.02 38.21-19.93L38.21-19.93L38.21-20.75Q38.21-26.65 35.05-29.73Q31.90-32.80 27.06-32.80L27.06-32.80Q22.30-32.80 19.11-29.73Q15.91-26.65 15.91-20.75L15.91-20.75L15.91-19.93Q15.91-14.02 19.11-10.95Q22.30-7.87 27.06-7.87ZM70.68 1.15L70.68 1.15Q66.34 1.15 62.89-0.37Q59.45-1.89 57.44-4.80Q55.43-7.71 55.43-11.89L55.43-11.89Q55.43-16.07 57.44-18.90Q59.45-21.73 63.02-23.17Q66.58-24.60 71.18-24.60L71.18-24.60L82.33-24.60L82.33-26.90Q82.33-29.77 80.52-31.61Q78.72-33.46 74.78-33.46L74.78-33.46Q70.93-33.46 69.04-31.69Q67.16-29.93 66.58-27.14L66.58-27.14L57.07-30.34Q58.06-33.46 60.23-36.04Q62.40-38.62 66.05-40.22Q69.70-41.82 74.95-41.82L74.95-41.82Q82.98-41.82 87.66-37.80Q92.33-33.78 92.33-26.16L92.33-26.16L92.33-10.99Q92.33-8.53 94.63-8.53L94.63-8.53L97.91-8.53L97.91 0L91.02 0Q87.99 0 86.02-1.48Q84.05-2.95 84.05-5.41L84.05-5.41L84.05-5.49L82.49-5.49Q82.16-4.51 81.02-2.91Q79.87-1.31 77.41-0.08Q74.95 1.15 70.68 1.15ZM72.49-7.22L72.49-7.22Q76.83-7.22 79.58-9.63Q82.33-12.05 82.33-16.07L82.33-16.07L82.33-16.89L71.91-16.89Q69.04-16.89 67.40-15.66Q65.76-14.43 65.76-12.22L65.76-12.22Q65.76-10.00 67.49-8.61Q69.21-7.22 72.49-7.22ZM115.78 0L105.45 0L105.45-57.40L115.78-57.40L115.78 0ZM145.80 1.15L145.80 1.15Q139.73 1.15 135.09-1.44Q130.46-4.02 127.88-8.73Q125.30-13.45 125.30-19.84L125.30-19.84L125.30-20.83Q125.30-27.22 127.84-31.94Q130.38-36.65 134.97-39.24Q139.56-41.82 145.63-41.82L145.63-41.82Q151.62-41.82 156.05-39.16Q160.47-36.49 162.93-31.78Q165.39-27.06 165.39-20.83L165.39-20.83L165.39-17.30L135.79-17.30Q135.96-13.12 138.91-10.50Q141.86-7.87 146.12-7.87L146.12-7.87Q150.47-7.87 152.52-9.76Q154.57-11.64 155.64-13.94L155.64-13.94L164.08-9.51Q162.93-7.38 160.76-4.88Q158.59-2.38 154.98-0.61Q151.37 1.15 145.80 1.15ZM135.87-25.01L135.87-25.01L154.90-25.01Q154.57-28.54 152.07-30.67Q149.57-32.80 145.55-32.80L145.55-32.80Q141.37-32.80 138.91-30.67Q136.45-28.54 135.87-25.01Z" fill="#E8EDF0"></path>
    <path d="M184.91 0L174.58 0L174.58-40.67L184.91-40.67L184.91 0ZM179.74-45.43L179.74-45.43Q176.96-45.43 175.03-47.23Q173.10-49.04 173.10-51.99L173.10-51.99Q173.10-54.94 175.03-56.74Q176.96-58.55 179.74-58.55L179.74-58.55Q182.61-58.55 184.50-56.74Q186.39-54.94 186.39-51.99L186.39-51.99Q186.39-49.04 184.50-47.23Q182.61-45.43 179.74-45.43ZM215.74 1.15L215.74 1.15Q209.67 1.15 204.84-1.31Q200.00-3.77 197.21-8.45Q194.42-13.12 194.42-19.68L194.42-19.68L194.42-20.99Q194.42-27.55 197.21-32.23Q200.00-36.90 204.84-39.36Q209.67-41.82 215.74-41.82L215.74-41.82Q221.81-41.82 226.65-39.36Q231.49-36.90 234.27-32.23Q237.06-27.55 237.06-20.99L237.06-20.99L237.06-19.68Q237.06-13.12 234.27-8.45Q231.49-3.77 226.65-1.31Q221.81 1.15 215.74 1.15ZM215.74-8.04L215.74-8.04Q220.50-8.04 223.61-11.11Q226.73-14.19 226.73-19.93L226.73-19.93L226.73-20.75Q226.73-26.49 223.66-29.56Q220.58-32.64 215.74-32.64L215.74-32.64Q210.99-32.64 207.87-29.56Q204.75-26.49 204.75-20.75L204.75-20.75L204.75-19.93Q204.75-14.19 207.87-11.11Q210.99-8.04 215.74-8.04Z" fill="#2FB344"></path>
  </g>
</svg>