<svg xmlns="http://www.w3.org/2000/svg" viewBox="0 0 210 62">
  <g transform="translate(1.1,56)">
    <path d="M25.76 0.98L25.76 0.98Q21.07 0.98 18.55-0.63Q16.03-2.24 14.84-4.20L14.84-4.20L13.58-4.20L13.58 0L4.90 0L4.90-49.00L13.72-49.00L13.72-30.73L14.98-30.73Q15.75-31.99 17.05-33.11Q18.34-34.23 20.48-34.97Q22.61-35.70 25.76-35.70L25.76-35.70Q29.96-35.70 33.53-33.64Q37.10-31.57 39.27-27.58Q41.44-23.59 41.44-17.92L41.44-17.92L41.44-16.80Q41.44-11.13 39.27-7.14Q37.10-3.15 33.53-1.09Q29.96 0.98 25.76 0.98ZM23.10-6.72L23.10-6.72Q27.16-6.72 29.89-9.35Q32.62-11.97 32.62-17.01L32.62-17.01L32.62-17.71Q32.62-22.75 29.93-25.38Q27.23-28.00 23.10-28.00L23.10-28.00Q19.04-28.00 16.31-25.38Q13.58-22.75 13.58-17.71L13.58-17.71L13.58-17.01Q13.58-11.97 16.31-9.35Q19.04-6.72 23.10-6.72ZM60.34 0.98L60.34 0.98Q56.63 0.98 53.69-0.32Q50.75-1.61 49.04-4.10Q47.32-6.58 47.32-10.15L47.32-10.15Q47.32-13.72 49.04-16.14Q50.75-18.55 53.80-19.78Q56.84-21.00 60.76-21.00L60.76-21.00L70.28-21.00L70.28-22.96Q70.28-25.41 68.74-26.99Q67.20-28.56 63.84-28.56L63.84-28.56Q60.55-28.56 58.94-27.06Q57.33-25.55 56.84-23.17L56.84-23.17L48.72-25.90Q49.56-28.56 51.42-30.77Q53.27-32.97 56.39-34.34Q59.50-35.70 63.98-35.70L63.98-35.70Q70.84-35.70 74.83-32.27Q78.82-28.84 78.82-22.33L78.82-22.33L78.82-9.38Q78.82-7.28 80.78-7.28L80.78-7.28L83.58-7.28L83.58 0L77.70 0Q75.11 0 73.43-1.26Q71.75-2.52 71.75-4.62L71.75-4.62L71.75-4.69L70.42-4.69Q70.14-3.85 69.16-2.49Q68.18-1.12 66.08-0.07Q63.98 0.98 60.34 0.98ZM61.88-6.16L61.88-6.16Q65.59-6.16 67.94-8.23Q70.28-10.29 70.28-13.72L70.28-13.72L70.28-14.42L61.39-14.42Q58.94-14.42 57.54-13.37Q56.14-12.32 56.14-10.43L56.14-10.43Q56.14-8.54 57.61-7.35Q59.08-6.16 61.88-6.16ZM98.84 0L90.02 0L90.02-49.00L98.84-49.00L98.84 0ZM124.46 0.98L124.46 0.98Q119.28 0.98 115.33-1.23Q111.37-3.43 109.17-7.46Q106.96-11.48 106.96-16.94L106.96-16.94L106.96-17.78Q106.96-23.24 109.13-27.27Q111.30-31.29 115.22-33.50Q119.14-35.70 124.32-35.70L124.32-35.70Q129.43-35.70 133.21-33.43Q136.99-31.15 139.09-27.13Q141.19-23.10 141.19-17.78L141.19-17.78L141.19-14.77L115.92-14.77Q116.06-11.20 118.58-8.96Q121.10-6.72 124.74-6.72L124.74-6.72Q128.45-6.72 130.20-8.33Q131.95-9.94 132.86-11.90L132.86-11.90L140.07-8.12Q139.09-6.30 137.24-4.17Q135.38-2.03 132.30-0.53Q129.22 0.98 124.46 0.98ZM115.99-21.35L115.99-21.35L132.23-21.35Q131.95-24.36 129.81-26.18Q127.68-28.00 124.25-28.00L124.25-28.00Q120.68-28.00 118.58-26.18Q116.48-24.36 115.99-21.35Z" fill="#12211A"></path>
    <path d="M157.85 0L149.03 0L149.03-34.72L157.85-34.72L157.85 0ZM153.44-38.78L153.44-38.78Q151.06-38.78 149.41-40.32Q147.77-41.86 147.77-44.38L147.77-44.38Q147.77-46.90 149.41-48.44Q151.06-49.98 153.44-49.98L153.44-49.98Q155.89-49.98 157.50-48.44Q159.11-46.90 159.11-44.38L159.11-44.38Q159.11-41.86 157.50-40.32Q155.89-38.78 153.44-38.78ZM184.17 0.98L184.17 0.98Q178.99 0.98 174.86-1.12Q170.73-3.22 168.35-7.21Q165.97-11.20 165.97-16.80L165.97-16.80L165.97-17.92Q165.97-23.52 168.35-27.51Q170.73-31.50 174.86-33.60Q178.99-35.70 184.17-35.70L184.17-35.70Q189.35-35.70 193.48-33.60Q197.61-31.50 199.99-27.51Q202.37-23.52 202.37-17.92L202.37-17.92L202.37-16.80Q202.37-11.20 199.99-7.21Q197.61-3.22 193.48-1.12Q189.35 0.98 184.17 0.98ZM184.17-6.86L184.17-6.86Q188.23-6.86 190.89-9.49Q193.55-12.11 193.55-17.01L193.55-17.01L193.55-17.71Q193.55-22.61 190.93-25.24Q188.30-27.86 184.17-27.86L184.17-27.86Q180.11-27.86 177.45-25.24Q174.79-22.61 174.79-17.71L174.79-17.71L174.79-17.01Q174.79-12.11 177.45-9.49Q180.11-6.86 184.17-6.86Z" fill="#2FB344"></path>
  </g>
</svg>